<?xml version="1.0" encoding="UTF-8"?>
<svg xmlns="http://www.w3.org/2000/svg" width="914" height="836" viewBox="0 0 914 836">
  <defs>
    <style>
      .title { font: 700 18px 'Segoe UI', Arial, sans-serif; fill: #111827; }
      .label { font: 12px 'Segoe UI', Arial, sans-serif; fill: #111827; }
      .actor-label { font: 16px 'Segoe UI', Arial, sans-serif; fill: #111827; }
      .box-title { font: 700 17px 'Segoe UI', Arial, sans-serif; fill: #111827; }
      .uc { fill: #f8fafc; stroke: #6b7280; stroke-width: 1.2; }
      .box { fill: #ffffff; stroke: #111827; stroke-width: 1.3; }
      .line { stroke: #111827; stroke-width: 1.4; fill: none; }
      .dashed { stroke: #111827; stroke-width: 1.2; fill: none; stroke-dasharray: 7 5; }
      .thin { stroke: #111827; stroke-width: 1.1; fill: none; }
    </style>
    <marker id="arrow" markerWidth="10" markerHeight="10" refX="9" refY="3" orient="auto" markerUnits="strokeWidth">
      <path d="M0,0 L10,3 L0,6 z" fill="#111827"/>
    </marker>
  </defs>

  <rect x="0" y="0" width="914" height="836" fill="#ffffff"/>
  <text x="457" y="28" text-anchor="middle" class="title">E-Uprava - Use Case Dijagram - Vrtic</text>

  <rect x="109" y="45" width="793" height="778" rx="2" ry="2" class="box"/>
  <text x="505" y="61" text-anchor="middle" class="box-title">Vrtic</text>

  <g transform="translate(36,69)">
    <circle cx="0" cy="0" r="8" class="thin"/>
    <line x1="0" y1="8" x2="0" y2="39" class="thin"/>
    <line x1="-13" y1="20" x2="13" y2="20" class="thin"/>
    <line x1="0" y1="39" x2="-12" y2="57" class="thin"/>
    <line x1="0" y1="39" x2="12" y2="57" class="thin"/>
    <text x="0" y="64" text-anchor="middle" class="actor-label">Vaspitac</text>
  </g>

  <g transform="translate(36,269)">
    <circle cx="0" cy="0" r="8" class="thin"/>
    <line x1="0" y1="8" x2="0" y2="39" class="thin"/>
    <line x1="-13" y1="20" x2="13" y2="20" class="thin"/>
    <line x1="0" y1="39" x2="-12" y2="57" class="thin"/>
    <line x1="0" y1="39" x2="12" y2="57" class="thin"/>
    <text x="0" y="64" text-anchor="middle" class="actor-label">Admin</text>
  </g>

  <g transform="translate(36,501)">
    <circle cx="0" cy="0" r="8" class="thin"/>
    <line x1="0" y1="8" x2="0" y2="39" class="thin"/>
    <line x1="-13" y1="20" x2="13" y2="20" class="thin"/>
    <line x1="0" y1="39" x2="-12" y2="57" class="thin"/>
    <line x1="0" y1="39" x2="12" y2="57" class="thin"/>
    <text x="0" y="64" text-anchor="middle" class="actor-label">Gost</text>
  </g>

  <g transform="translate(36,724)">
    <circle cx="0" cy="0" r="8" class="thin"/>
    <line x1="0" y1="8" x2="0" y2="39" class="thin"/>
    <line x1="-13" y1="20" x2="13" y2="20" class="thin"/>
    <line x1="0" y1="39" x2="-12" y2="57" class="thin"/>
    <line x1="0" y1="39" x2="12" y2="57" class="thin"/>
    <text x="0" y="64" text-anchor="middle" class="actor-label">Roditelj</text>
  </g>

  <ellipse cx="224" cy="99" rx="72" ry="19" class="uc"/>
  <text x="224" y="103" text-anchor="middle" class="actor-label">Pregled dece u vrticu</text>

  <ellipse cx="515" cy="119" rx="120" ry="27" class="uc"/>
  <text x="515" y="122" text-anchor="middle" class="actor-label">Odobravanje / odbijanje</text>
  <text x="515" y="140" text-anchor="middle" class="actor-label">sastanaka</text>

  <ellipse cx="241" cy="176" rx="88" ry="22" class="uc"/>
  <text x="241" y="180" text-anchor="middle" class="actor-label">Slanje obavestenja</text>
  <text x="241" y="198" text-anchor="middle" class="actor-label">roditelju</text>

  <ellipse cx="228" cy="257" rx="96" ry="21" class="uc"/>
  <text x="228" y="260" text-anchor="middle" class="actor-label">Provera dokumentacije</text>
  <text x="228" y="278" text-anchor="middle" class="actor-label">za upis</text>

  <ellipse cx="522" cy="241" rx="111" ry="26" class="uc"/>
  <text x="522" y="244" text-anchor="middle" class="actor-label">Odobravanje / odbijanje</text>
  <text x="522" y="262" text-anchor="middle" class="actor-label">zahteva za upis</text>

  <ellipse cx="232" cy="327" rx="88" ry="21" class="uc"/>
  <text x="232" y="332" text-anchor="middle" class="actor-label">Raspisivanje konkursa</text>

  <ellipse cx="239" cy="416" rx="114" ry="28" class="uc"/>
  <text x="239" y="419" text-anchor="middle" class="actor-label">Rasporedjivanje vaspitaca</text>
  <text x="239" y="438" text-anchor="middle" class="actor-label">po vrticima</text>

  <ellipse cx="230" cy="497" rx="77" ry="18" class="uc"/>
  <text x="230" y="502" text-anchor="middle" class="actor-label">Pregled vrtica</text>

  <ellipse cx="228" cy="567" rx="99" ry="18" class="uc"/>
  <text x="228" y="572" text-anchor="middle" class="actor-label">Poredjenje dva vrtica</text>

  <ellipse cx="239" cy="646" rx="104" ry="28" class="uc"/>
  <text x="239" y="649" text-anchor="middle" class="actor-label">Zakazivanje sastanka</text>
  <text x="239" y="668" text-anchor="middle" class="actor-label">sa vaspitacem</text>

  <ellipse cx="225" cy="721" rx="74" ry="18" class="uc"/>
  <text x="225" y="726" text-anchor="middle" class="actor-label">Upis deteta</text>

  <ellipse cx="471" cy="752" rx="124" ry="22" class="uc"/>
  <text x="471" y="757" text-anchor="middle" class="actor-label">Pracenje statusa zahteva</text>

  <ellipse cx="221" cy="784" rx="89" ry="19" class="uc"/>
  <text x="221" y="789" text-anchor="middle" class="actor-label">Ocenjivanje vrtica</text>

  <ellipse cx="791" cy="703" rx="95" ry="24" class="uc"/>
  <text x="791" y="707" text-anchor="middle" class="actor-label">Preuzimanje potvrde</text>
  <text x="791" y="725" text-anchor="middle" class="actor-label">o upisu</text>

  <ellipse cx="776" cy="787" rx="81" ry="22" class="uc"/>
  <text x="776" y="792" text-anchor="middle" class="actor-label">Preuzimanje odbijenice</text>

  <path d="M66 99 L151 99" class="line" marker-end="url(#arrow)"/>
  <path d="M48 129 L395 129" class="line" marker-end="url(#arrow)"/>
  <path d="M49 129 L49 176 L153 176" class="line" marker-end="url(#arrow)"/>

  <path d="M61 257 L132 257" class="line" marker-end="url(#arrow)"/>
  <path d="M61 289 L412 257" class="line" marker-end="url(#arrow)"/>
  <path d="M61 326 L144 327" class="line" marker-end="url(#arrow)"/>
  <path d="M61 336 L125 416" class="line" marker-end="url(#arrow)"/>

  <path d="M61 497 L153 497" class="line" marker-end="url(#arrow)"/>
  <path d="M61 551 L129 567" class="line" marker-end="url(#arrow)"/>

  <path d="M61 720 L151 721" class="line" marker-end="url(#arrow)"/>
  <path d="M61 746 L135 784" class="line" marker-end="url(#arrow)"/>
  <path d="M61 735 L136 646" class="line" marker-end="url(#arrow)"/>
  <path d="M61 732 L349 752" class="line" marker-end="url(#arrow)"/>
  <path d="M61 732 L697 703" class="line" marker-end="url(#arrow)"/>

  <path d="M324 257 L414 242" class="dashed" marker-end="url(#arrow)"/>
  <text x="345" y="246" class="label">&lt;&lt;include&gt;&gt;</text>

  <path d="M344 646 L392 646 L392 267 L433 267" class="dashed" marker-end="url(#arrow)"/>
  <text x="399" y="399" class="label">&lt;&lt;include&gt;&gt;</text>

  <path d="M239 739 L239 752 L347 752" class="dashed" marker-end="url(#arrow)"/>
  <text x="265" y="756" class="label">&lt;&lt;include&gt;&gt;</text>

  <path d="M595 752 L695 703" class="dashed" marker-end="url(#arrow)"/>
  <text x="654" y="715" class="label">&lt;&lt;extend&gt;&gt;</text>

  <path d="M595 761 L699 787" class="dashed" marker-end="url(#arrow)"/>
  <text x="653" y="780" class="label">&lt;&lt;extend&gt;&gt;</text>
</svg>
